<svg  xmlns="http://www.w3.org/2000/svg" xmlns:xlink="http://www.w3.org/1999/xlink" width="447.5px" height="447.5px"><path fill-rule="evenodd"  stroke-width="5px" stroke="rgb(0, 252, 255)" fill-opacity="0" fill="rgb(0, 255, 245)" d="M223.143,10.134 C340.671,10.134 435.947,105.367 435.947,222.842 C435.947,340.317 340.671,435.550 223.143,435.550 C105.614,435.550 10.339,340.317 10.339,222.842 C10.339,105.367 105.614,10.134 223.143,10.134 Z"/><path fill-rule="evenodd"  stroke="rgb(0, 255, 255)" stroke-width="3px" stroke-linecap="butt" stroke-linejoin="miter" fill="none" d="M104.503,90.142 L86.782,86.369 L92.373,103.595 L104.503,90.142 Z"/><path fill-rule="evenodd"  stroke="rgb(0, 255, 255)" stroke-width="3px" stroke-linecap="butt" stroke-linejoin="miter" fill="none" d="M105.700,353.110 L91.026,342.488 L89.160,360.502 L105.700,353.110 Z"/><path fill-rule="evenodd"  stroke="rgb(0, 255, 255)" stroke-width="3px" stroke-linecap="butt" stroke-linejoin="miter" fill="none" d="M338.524,90.142 L356.244,86.369 L350.653,103.595 L338.524,90.142 Z"/><path fill-rule="evenodd"  stroke="rgb(0, 255, 255)" stroke-width="3px" stroke-linecap="butt" stroke-linejoin="miter" fill="none" d="M337.326,353.110 L352.000,342.488 L353.866,360.502 L337.326,353.110 Z"/></svg>